<svg xmlns="http://www.w3.org/2000/svg" width="134.352" height="60.004" viewBox="0 0 134.352 60.004">
  <g id="Full_Logo" data-name="Full Logo" transform="translate(2388 -1431)">
    <g id="Group_1834" data-name="Group 1834" transform="translate(-2388 1431)">
      <rect id="Rectangle_1383" data-name="Rectangle 1383" width="9.133" height="9.133" rx="4.566" transform="translate(24.857 16.087)" fill="#0052cc"/>
      <rect id="Rectangle_1384" data-name="Rectangle 1384" width="9.376" height="21.569" rx="4.688" transform="translate(14.261 31.953) rotate(-45)" fill="#004c89"/>
      <path id="Path_1882" data-name="Path 1882" d="M260.575,242.083a4.688,4.688,0,0,1,6.63,0h0a4.688,4.688,0,0,1,0,6.63l-13.259,13.259a4.688,4.688,0,0,1-6.629,0L244,258.657Z" transform="translate(-221.124 -218.142)" fill="#0052cc"/>
      <path id="Path_1883" data-name="Path 1883" d="M27.658,6V4.607A25.508,25.508,0,0,0,4.6,27.775H5.954a2.25,2.25,0,1,1,0,4.5H4.6a25.508,25.508,0,0,0,23.152,23.13V54.1a2.25,2.25,0,0,1,4.5,0V60H30l-2.25-.083A30,30,0,0,1,27.658.09L30,0h2.156V6a2.25,2.25,0,1,1-4.5,0Z" transform="translate(0)" fill="#0052cc" fill-rule="evenodd"/>
    </g>
    <g id="Group_1835" data-name="Group 1835" transform="translate(-2331.172 1440.261)">
      <path id="Path_1884" data-name="Path 1884" d="M1215.653,86.3a5.175,5.175,0,0,1,3.9,1.488,5.643,5.643,0,0,1,1.464,4.135v7.7H1217V92.462a2.651,2.651,0,0,0-.685-1.961,2.4,2.4,0,0,0-1.842-.709,2.475,2.475,0,0,0-1.867.709,2.713,2.713,0,0,0-.662,1.961v7.159h-4.016V92.462a2.654,2.654,0,0,0-.684-1.961,2.4,2.4,0,0,0-1.843-.709,2.475,2.475,0,0,0-1.867.709,2.712,2.712,0,0,0-.661,1.961v7.159h-4.041V86.438h4.041v1.654a4.22,4.22,0,0,1,1.606-1.3,4.952,4.952,0,0,1,2.245-.5,5.394,5.394,0,0,1,2.647.638,4.549,4.549,0,0,1,1.842,1.819,5.31,5.31,0,0,1,1.867-1.772A5.044,5.044,0,0,1,1215.653,86.3Z" transform="translate(-1143.491 -82.799)" fill="#0052cc"/>
      <path id="Path_1885" data-name="Path 1885" d="M1040.906,87.808v13.184h-4.04V99.2a4.511,4.511,0,0,1-1.677,1.418,5.107,5.107,0,0,1-2.316.52,5.284,5.284,0,0,1-2.669-.662,4.614,4.614,0,0,1-1.8-1.961,6.639,6.639,0,0,1-.638-3v-7.7h4.017v7.159a2.893,2.893,0,0,0,.685,2.056,2.4,2.4,0,0,0,1.842.732,2.433,2.433,0,0,0,1.867-.732,2.9,2.9,0,0,0,.685-2.056V87.808Z" transform="translate(-988.469 -84.17)" fill="#0052cc"/>
      <path id="Path_1886" data-name="Path 1886" d="M925.281,88.635a5.217,5.217,0,0,1,1.772-1.7,4.5,4.5,0,0,1,2.362-.638v4.276h-1.11a3.362,3.362,0,0,0-2.268.662,2.847,2.847,0,0,0-.756,2.268v6.119h-4.04V86.438h4.04Z" transform="translate(-891.928 -82.799)" fill="#0052cc"/>
      <path id="Path_1887" data-name="Path 1887" d="M760.095,92.573a7.462,7.462,0,0,1,.827-3.591,5.924,5.924,0,0,1,2.339-2.363,7.071,7.071,0,0,1,3.449-.827,6.487,6.487,0,0,1,4.135,1.3,6.107,6.107,0,0,1,2.2,3.662h-4.3a2.07,2.07,0,0,0-2.1-1.512,2.109,2.109,0,0,0-1.772.874,3.936,3.936,0,0,0-.661,2.457,4.043,4.043,0,0,0,.661,2.481,2.13,2.13,0,0,0,1.772.851,2.07,2.07,0,0,0,2.1-1.512h4.3a6.189,6.189,0,0,1-2.2,3.638,6.47,6.47,0,0,1-4.135,1.323,7.071,7.071,0,0,1-3.449-.827,5.924,5.924,0,0,1-2.339-2.363A7.462,7.462,0,0,1,760.095,92.573Z" transform="translate(-745.89 -82.343)" fill="#0052cc"/>
      <path id="Path_1888" data-name="Path 1888" d="M615.058,65.987a8.532,8.532,0,0,1-3.26-.591,5.4,5.4,0,0,1-2.315-1.748,4.825,4.825,0,0,1-.9-2.788h4.3a2.134,2.134,0,0,0,.638,1.418,2.083,2.083,0,0,0,1.418.473,2.263,2.263,0,0,0,1.418-.4,1.416,1.416,0,0,0,.52-1.158,1.338,1.338,0,0,0-.425-1.016,3.153,3.153,0,0,0-1.016-.662,15.36,15.36,0,0,0-1.7-.591,18.646,18.646,0,0,1-2.623-.992,4.845,4.845,0,0,1-1.748-1.465,4.081,4.081,0,0,1-.732-2.528,4.315,4.315,0,0,1,1.677-3.615A6.851,6.851,0,0,1,614.68,49a6.929,6.929,0,0,1,4.418,1.323,4.658,4.658,0,0,1,1.8,3.638h-4.371a1.67,1.67,0,0,0-.591-1.252,2.048,2.048,0,0,0-1.394-.473,1.7,1.7,0,0,0-1.181.4,1.37,1.37,0,0,0-.449,1.11A1.391,1.391,0,0,0,613.664,55a12.4,12.4,0,0,0,2.363.969,21.049,21.049,0,0,1,2.6,1.04,4.937,4.937,0,0,1,1.748,1.441,3.858,3.858,0,0,1,.732,2.434,4.718,4.718,0,0,1-.732,2.575,4.964,4.964,0,0,1-2.079,1.843A7.158,7.158,0,0,1,615.058,65.987Z" transform="translate(-608.584 -49)" fill="#0052cc"/>
      <path id="Path_1889" data-name="Path 1889" d="M1121.061,353.36a10.43,10.43,0,0,1-.071,1.181h-9.143a2.822,2.822,0,0,0,.779,1.89,2.485,2.485,0,0,0,1.725.638,2.124,2.124,0,0,0,2.1-1.276h4.3a6.019,6.019,0,0,1-3.354,3.969,6.947,6.947,0,0,1-2.906.591,7.069,7.069,0,0,1-3.449-.827,5.882,5.882,0,0,1-2.363-2.363,7.293,7.293,0,0,1-.85-3.591,7.463,7.463,0,0,1,.827-3.591,5.872,5.872,0,0,1,2.363-2.363,7.657,7.657,0,0,1,6.875-.024,5.692,5.692,0,0,1,2.315,2.292A6.876,6.876,0,0,1,1121.061,353.36Zm-4.135-1.063a2.078,2.078,0,0,0-.709-1.654,2.839,2.839,0,0,0-3.5-.024,2.647,2.647,0,0,0-.85,1.677Z" transform="translate(-1061.023 -318.872)" fill="#0052cc"/>
      <path id="Path_1890" data-name="Path 1890" d="M1012.006,327.507v3.426h-2.055a5.067,5.067,0,0,1-3.426-1.063,4.481,4.481,0,0,1-1.229-3.52V321.1h-1.606v-3.355h1.606v-3.213h4.04v3.213h2.647V321.1h-2.647V326.4a1.106,1.106,0,0,0,.284.851,1.382,1.382,0,0,0,.945.26Z" transform="translate(-966.646 -289.64)" fill="#0052cc"/>
      <path id="Path_1891" data-name="Path 1891" d="M834.416,353.549a7.982,7.982,0,0,1,.756-3.568,5.808,5.808,0,0,1,2.1-2.363,5.459,5.459,0,0,1,2.953-.827,5,5,0,0,1,2.433.567,4.157,4.157,0,0,1,1.63,1.488v-1.867h4.04v13.184h-4.04V358.3a4.342,4.342,0,0,1-1.654,1.488,5.005,5.005,0,0,1-2.434.567,5.417,5.417,0,0,1-2.93-.827,5.981,5.981,0,0,1-2.1-2.386A8.134,8.134,0,0,1,834.416,353.549Zm9.876.024a3.276,3.276,0,0,0-.851-2.386,2.688,2.688,0,0,0-2.032-.874,2.763,2.763,0,0,0-2.056.874,3.247,3.247,0,0,0-.827,2.363,3.418,3.418,0,0,0,.827,2.41,2.763,2.763,0,0,0,2.056.874,2.688,2.688,0,0,0,2.032-.874A3.276,3.276,0,0,0,844.292,353.573Z" transform="translate(-813.243 -318.872)" fill="#0052cc"/>
      <path id="Path_1892" data-name="Path 1892" d="M772.7,302.944v17.484h-4.04V302.944Z" transform="translate(-753.655 -279.135)" fill="#0052cc"/>
      <path id="Path_1893" data-name="Path 1893" d="M615.058,326.987a8.532,8.532,0,0,1-3.26-.591,5.4,5.4,0,0,1-2.315-1.748,4.825,4.825,0,0,1-.9-2.788h4.3a2.134,2.134,0,0,0,.638,1.418,2.083,2.083,0,0,0,1.418.473,2.263,2.263,0,0,0,1.418-.4,1.416,1.416,0,0,0,.52-1.158,1.337,1.337,0,0,0-.425-1.016,3.152,3.152,0,0,0-1.016-.662,15.361,15.361,0,0,0-1.7-.591,18.645,18.645,0,0,1-2.623-.992,4.846,4.846,0,0,1-1.748-1.465,4.081,4.081,0,0,1-.732-2.528,4.315,4.315,0,0,1,1.677-3.615A6.851,6.851,0,0,1,614.68,310a6.929,6.929,0,0,1,4.418,1.323,4.658,4.658,0,0,1,1.8,3.638h-4.371a1.67,1.67,0,0,0-.591-1.252,2.048,2.048,0,0,0-1.394-.473,1.7,1.7,0,0,0-1.181.4,1.37,1.37,0,0,0-.449,1.11,1.391,1.391,0,0,0,.756,1.252,12.394,12.394,0,0,0,2.363.969,21.047,21.047,0,0,1,2.6,1.04,4.937,4.937,0,0,1,1.748,1.441,3.858,3.858,0,0,1,.732,2.434,4.718,4.718,0,0,1-.732,2.575,4.964,4.964,0,0,1-2.079,1.843A7.158,7.158,0,0,1,615.058,326.987Z" transform="translate(-608.584 -285.53)" fill="#0052cc"/>
    </g>
  </g>
</svg>
